<mxfile host="app.diagrams.net" modified="2022-11-21T03:53:50.787Z" agent="5.0 (Windows NT 10.0; Win64; x64) AppleWebKit/537.36 (KHTML, like Gecko) Chrome/107.0.0.0 Safari/537.36 Edg/107.0.1418.52" etag="gACjkSEKadpIq7Bl-16J" version="20.5.3" type="github">
  <diagram name="Page-1" id="c7558073-3199-34d8-9f00-42111426c3f3">
    <mxGraphModel dx="2416" dy="1342" grid="1" gridSize="10" guides="1" tooltips="1" connect="1" arrows="1" fold="1" page="1" pageScale="1" pageWidth="850" pageHeight="1100" background="none" math="0" shadow="0">
      <root>
        <mxCell id="0" />
        <mxCell id="1" parent="0" />
        <mxCell id="rRo6whoKWek-YD1S4NNh-108" value="User Quote Request" style="edgeStyle=orthogonalEdgeStyle;rounded=0;orthogonalLoop=1;jettySize=auto;html=1;entryX=0.5;entryY=0;entryDx=0;entryDy=0;" parent="1" source="rRo6whoKWek-YD1S4NNh-96" target="rRo6whoKWek-YD1S4NNh-107" edge="1">
          <mxGeometry relative="1" as="geometry" />
        </mxCell>
        <mxCell id="rRo6whoKWek-YD1S4NNh-96" value="End-User" style="whiteSpace=wrap;align=center;verticalAlign=middle;fontStyle=1;strokeWidth=3;fillColor=#FFFFCC" parent="1" vertex="1">
          <mxGeometry x="720" y="40" width="90" height="60" as="geometry" />
        </mxCell>
        <mxCell id="rRo6whoKWek-YD1S4NNh-132" value="Quoutes for unavailable parts" style="edgeStyle=orthogonalEdgeStyle;rounded=0;orthogonalLoop=1;jettySize=auto;html=1;entryX=0.5;entryY=0;entryDx=0;entryDy=0;" parent="1" source="rRo6whoKWek-YD1S4NNh-102" target="rRo6whoKWek-YD1S4NNh-128" edge="1">
          <mxGeometry relative="1" as="geometry" />
        </mxCell>
        <mxCell id="rRo6whoKWek-YD1S4NNh-102" value="3rd Party Supplier(s)" style="whiteSpace=wrap;align=center;verticalAlign=middle;fontStyle=1;strokeWidth=3;fillColor=#FFFFCC" parent="1" vertex="1">
          <mxGeometry x="341" y="690" width="90" height="60" as="geometry" />
        </mxCell>
        <mxCell id="rRo6whoKWek-YD1S4NNh-115" style="edgeStyle=orthogonalEdgeStyle;rounded=0;orthogonalLoop=1;jettySize=auto;html=1;exitX=0.75;exitY=1;exitDx=0;exitDy=0;" parent="1" source="rRo6whoKWek-YD1S4NNh-107" target="rRo6whoKWek-YD1S4NNh-113" edge="1">
          <mxGeometry relative="1" as="geometry">
            <mxPoint x="810" y="310" as="sourcePoint" />
            <Array as="points">
              <mxPoint x="805" y="433" />
            </Array>
          </mxGeometry>
        </mxCell>
        <mxCell id="rRo6whoKWek-YD1S4NNh-116" value="Quote Type Determination" style="edgeStyle=orthogonalEdgeStyle;rounded=0;orthogonalLoop=1;jettySize=auto;html=1;entryX=1;entryY=0.5;entryDx=0;entryDy=0;exitX=0.25;exitY=1;exitDx=0;exitDy=0;" parent="1" source="rRo6whoKWek-YD1S4NNh-107" target="rRo6whoKWek-YD1S4NNh-114" edge="1">
          <mxGeometry x="-0.6179" y="31" relative="1" as="geometry">
            <mxPoint as="offset" />
          </mxGeometry>
        </mxCell>
        <mxCell id="rRo6whoKWek-YD1S4NNh-107" value="&lt;p style=&quot;margin: 0px; margin-top: 4px; text-align: center; text-decoration: underline;&quot;&gt;&lt;strong&gt;1.0&lt;/strong&gt;&lt;/p&gt;&lt;hr&gt;&lt;p style=&quot;margin: 0px; margin-left: 8px;&quot;&gt;Check Parts Availability&lt;/p&gt;" style="verticalAlign=middle;align=center;overflow=fill;fontSize=12;fontFamily=Helvetica;html=1;rounded=1;fontStyle=1;strokeWidth=3;fillColor=#E6FFCC" parent="1" vertex="1">
          <mxGeometry x="685" y="240" width="160" height="65" as="geometry" />
        </mxCell>
        <mxCell id="x8zcqKaMzjIdZkj18LFA-16" value="" style="edgeStyle=orthogonalEdgeStyle;rounded=0;orthogonalLoop=1;jettySize=auto;html=1;" parent="1" source="rRo6whoKWek-YD1S4NNh-113" target="x8zcqKaMzjIdZkj18LFA-10" edge="1">
          <mxGeometry relative="1" as="geometry" />
        </mxCell>
        <mxCell id="rRo6whoKWek-YD1S4NNh-113" value="&lt;p style=&quot;margin: 0px; margin-top: 4px; text-align: center; text-decoration: underline;&quot;&gt;&lt;strong&gt;1.50&lt;/strong&gt;&lt;/p&gt;&lt;hr&gt;&lt;p style=&quot;margin: 0px; margin-left: 8px;&quot;&gt;Immediate Quote&lt;/p&gt;" style="verticalAlign=middle;align=center;overflow=fill;fontSize=12;fontFamily=Helvetica;html=1;rounded=1;fontStyle=1;strokeWidth=3;fillColor=#E6FFCC" parent="1" vertex="1">
          <mxGeometry x="1035" y="400" width="160" height="65" as="geometry" />
        </mxCell>
        <mxCell id="rRo6whoKWek-YD1S4NNh-124" style="edgeStyle=orthogonalEdgeStyle;rounded=0;orthogonalLoop=1;jettySize=auto;html=1;entryX=0.5;entryY=0;entryDx=0;entryDy=0;" parent="1" source="rRo6whoKWek-YD1S4NNh-114" target="rRo6whoKWek-YD1S4NNh-123" edge="1">
          <mxGeometry relative="1" as="geometry" />
        </mxCell>
        <mxCell id="x8zcqKaMzjIdZkj18LFA-18" value="Quote request details" style="edgeLabel;html=1;align=center;verticalAlign=middle;resizable=0;points=[];" parent="rRo6whoKWek-YD1S4NNh-124" vertex="1" connectable="0">
          <mxGeometry x="0.2679" y="-4" relative="1" as="geometry">
            <mxPoint as="offset" />
          </mxGeometry>
        </mxCell>
        <mxCell id="rRo6whoKWek-YD1S4NNh-114" value="&lt;p style=&quot;margin: 0px; margin-top: 4px; text-align: center; text-decoration: underline;&quot;&gt;&lt;strong&gt;1.1&lt;/strong&gt;&lt;/p&gt;&lt;hr&gt;&lt;p style=&quot;margin: 0px; margin-left: 8px;&quot;&gt;Custom Quote&lt;/p&gt;" style="verticalAlign=middle;align=center;overflow=fill;fontSize=12;fontFamily=Helvetica;html=1;rounded=1;fontStyle=1;strokeWidth=3;fillColor=#E6FFCC" parent="1" vertex="1">
          <mxGeometry x="475" y="400" width="160" height="65" as="geometry" />
        </mxCell>
        <mxCell id="x8zcqKaMzjIdZkj18LFA-12" style="edgeStyle=orthogonalEdgeStyle;rounded=0;orthogonalLoop=1;jettySize=auto;html=1;exitX=1;exitY=0.5;exitDx=0;exitDy=0;entryX=0;entryY=0.25;entryDx=0;entryDy=0;" parent="1" source="rRo6whoKWek-YD1S4NNh-117" target="x8zcqKaMzjIdZkj18LFA-10" edge="1">
          <mxGeometry relative="1" as="geometry">
            <mxPoint x="570" y="541.25" as="targetPoint" />
          </mxGeometry>
        </mxCell>
        <mxCell id="x8zcqKaMzjIdZkj18LFA-13" value="Part costs" style="edgeLabel;html=1;align=center;verticalAlign=middle;resizable=0;points=[];" parent="x8zcqKaMzjIdZkj18LFA-12" vertex="1" connectable="0">
          <mxGeometry x="-0.1464" y="-2" relative="1" as="geometry">
            <mxPoint as="offset" />
          </mxGeometry>
        </mxCell>
        <mxCell id="x8zcqKaMzjIdZkj18LFA-17" value="Parts availability" style="edgeStyle=orthogonalEdgeStyle;rounded=0;orthogonalLoop=1;jettySize=auto;html=1;exitX=0.5;exitY=0;exitDx=0;exitDy=0;entryX=0.5;entryY=1;entryDx=0;entryDy=0;" parent="1" source="rRo6whoKWek-YD1S4NNh-117" target="rRo6whoKWek-YD1S4NNh-107" edge="1">
          <mxGeometry x="-0.6809" relative="1" as="geometry">
            <mxPoint as="offset" />
          </mxGeometry>
        </mxCell>
        <mxCell id="x8zcqKaMzjIdZkj18LFA-19" value="List of parts not in inventory" style="edgeStyle=orthogonalEdgeStyle;rounded=0;orthogonalLoop=1;jettySize=auto;html=1;entryX=1;entryY=0.5;entryDx=0;entryDy=0;exitX=0;exitY=0;exitDx=0;exitDy=0;" parent="1" source="rRo6whoKWek-YD1S4NNh-117" target="rRo6whoKWek-YD1S4NNh-123" edge="1">
          <mxGeometry relative="1" as="geometry">
            <mxPoint x="690" y="500" as="sourcePoint" />
            <Array as="points">
              <mxPoint x="500" y="490" />
              <mxPoint x="500" y="551" />
            </Array>
          </mxGeometry>
        </mxCell>
        <mxCell id="x8zcqKaMzjIdZkj18LFA-20" value="Parts" style="edgeStyle=orthogonalEdgeStyle;rounded=0;orthogonalLoop=1;jettySize=auto;html=1;exitX=1;exitY=0.5;exitDx=0;exitDy=0;" parent="1" source="rRo6whoKWek-YD1S4NNh-128" edge="1">
          <mxGeometry relative="1" as="geometry">
            <mxPoint x="690" y="505" as="targetPoint" />
            <Array as="points">
              <mxPoint x="540" y="875" />
              <mxPoint x="540" y="505" />
            </Array>
          </mxGeometry>
        </mxCell>
        <mxCell id="rRo6whoKWek-YD1S4NNh-117" value="&lt;span style=&quot;white-space: pre;&quot;&gt;	&lt;/span&gt;Parts Inventory" style="html=1;dashed=0;whitespace=wrap;shape=mxgraph.dfd.dataStoreID;align=left;spacingLeft=3;points=[[0,0],[0.5,0],[1,0],[0,0.5],[1,0.5],[0,1],[0.5,1],[1,1]];fillColor=#CDA2BE;" parent="1" vertex="1">
          <mxGeometry x="690.5" y="490" width="149" height="30" as="geometry" />
        </mxCell>
        <mxCell id="x8zcqKaMzjIdZkj18LFA-11" value="Work hours information" style="edgeStyle=orthogonalEdgeStyle;rounded=0;orthogonalLoop=1;jettySize=auto;html=1;exitX=1;exitY=0.5;exitDx=0;exitDy=0;entryX=0;entryY=0.5;entryDx=0;entryDy=0;" parent="1" source="rRo6whoKWek-YD1S4NNh-119" target="x8zcqKaMzjIdZkj18LFA-10" edge="1">
          <mxGeometry relative="1" as="geometry">
            <mxPoint x="570" y="557.5" as="targetPoint" />
          </mxGeometry>
        </mxCell>
        <mxCell id="x8zcqKaMzjIdZkj18LFA-29" value="Work hours information" style="edgeStyle=orthogonalEdgeStyle;rounded=0;orthogonalLoop=1;jettySize=auto;html=1;exitX=0;exitY=0.5;exitDx=0;exitDy=0;entryX=1;entryY=0.5;entryDx=0;entryDy=0;" parent="1" source="rRo6whoKWek-YD1S4NNh-119" target="x8zcqKaMzjIdZkj18LFA-21" edge="1">
          <mxGeometry x="0.7384" y="-5" relative="1" as="geometry">
            <Array as="points">
              <mxPoint x="610" y="558" />
              <mxPoint x="610" y="1025" />
            </Array>
            <mxPoint as="offset" />
          </mxGeometry>
        </mxCell>
        <mxCell id="rRo6whoKWek-YD1S4NNh-119" value="&lt;span style=&quot;white-space: pre;&quot;&gt;	&lt;/span&gt;Services list" style="html=1;dashed=0;whitespace=wrap;shape=mxgraph.dfd.dataStoreID;align=left;spacingLeft=3;points=[[0,0],[0.5,0],[1,0],[0,0.5],[1,0.5],[0,1],[0.5,1],[1,1]];fillColor=#CDA2BE;" parent="1" vertex="1">
          <mxGeometry x="690.5" y="542.5" width="149" height="30" as="geometry" />
        </mxCell>
        <mxCell id="rRo6whoKWek-YD1S4NNh-127" value="Unavailable Parts Quote Request" style="edgeStyle=orthogonalEdgeStyle;rounded=0;orthogonalLoop=1;jettySize=auto;html=1;" parent="1" source="rRo6whoKWek-YD1S4NNh-123" target="rRo6whoKWek-YD1S4NNh-102" edge="1">
          <mxGeometry relative="1" as="geometry" />
        </mxCell>
        <mxCell id="rRo6whoKWek-YD1S4NNh-123" value="&lt;p style=&quot;margin: 0px; margin-top: 4px; text-align: center; text-decoration: underline;&quot;&gt;&lt;strong&gt;1.2&lt;/strong&gt;&lt;/p&gt;&lt;hr&gt;&lt;p style=&quot;margin: 0px; margin-left: 8px;&quot;&gt;Request quote from&lt;br&gt;3rd Party Supplier&lt;/p&gt;" style="verticalAlign=middle;align=center;overflow=fill;fontSize=12;fontFamily=Helvetica;html=1;rounded=1;fontStyle=1;strokeWidth=3;fillColor=#E6FFCC" parent="1" vertex="1">
          <mxGeometry x="300" y="512.5" width="170" height="77.5" as="geometry" />
        </mxCell>
        <mxCell id="rRo6whoKWek-YD1S4NNh-126" style="edgeStyle=orthogonalEdgeStyle;rounded=0;orthogonalLoop=1;jettySize=auto;html=1;entryX=0;entryY=0.5;entryDx=0;entryDy=0;" parent="1" source="rRo6whoKWek-YD1S4NNh-125" target="rRo6whoKWek-YD1S4NNh-123" edge="1">
          <mxGeometry relative="1" as="geometry" />
        </mxCell>
        <mxCell id="rRo6whoKWek-YD1S4NNh-125" value="&lt;span style=&quot;white-space: pre;&quot;&gt;	&lt;/span&gt;3rd Party Supplier List" style="html=1;dashed=0;whitespace=wrap;shape=mxgraph.dfd.dataStoreID;align=left;spacingLeft=3;points=[[0,0],[0.5,0],[1,0],[0,0.5],[1,0.5],[0,1],[0.5,1],[1,1]];fillColor=#CDA2BE;" parent="1" vertex="1">
          <mxGeometry x="40" y="536.25" width="160" height="30" as="geometry" />
        </mxCell>
        <mxCell id="x8zcqKaMzjIdZkj18LFA-22" value="" style="edgeStyle=orthogonalEdgeStyle;rounded=0;orthogonalLoop=1;jettySize=auto;html=1;" parent="1" source="rRo6whoKWek-YD1S4NNh-128" target="x8zcqKaMzjIdZkj18LFA-21" edge="1">
          <mxGeometry relative="1" as="geometry" />
        </mxCell>
        <mxCell id="rRo6whoKWek-YD1S4NNh-128" value="&lt;p style=&quot;margin: 0px; margin-top: 4px; text-align: center; text-decoration: underline;&quot;&gt;&lt;strong&gt;1.3&lt;/strong&gt;&lt;/p&gt;&lt;hr&gt;&lt;p style=&quot;margin: 0px; margin-left: 8px;&quot;&gt;Store offers for&lt;br&gt;unavailable parts&lt;/p&gt;" style="verticalAlign=middle;align=center;overflow=fill;fontSize=12;fontFamily=Helvetica;html=1;rounded=1;fontStyle=1;strokeWidth=3;fillColor=#E6FFCC" parent="1" vertex="1">
          <mxGeometry x="300" y="840" width="170" height="70" as="geometry" />
        </mxCell>
        <mxCell id="x8zcqKaMzjIdZkj18LFA-27" value="Quote" style="edgeStyle=orthogonalEdgeStyle;rounded=0;orthogonalLoop=1;jettySize=auto;html=1;exitX=1;exitY=0.5;exitDx=0;exitDy=0;entryX=1;entryY=0.75;entryDx=0;entryDy=0;" parent="1" source="x8zcqKaMzjIdZkj18LFA-10" target="rRo6whoKWek-YD1S4NNh-96" edge="1">
          <mxGeometry x="-0.9107" relative="1" as="geometry">
            <mxPoint x="744.9999999999995" y="850" as="targetPoint" />
            <mxPoint as="offset" />
          </mxGeometry>
        </mxCell>
        <mxCell id="x8zcqKaMzjIdZkj18LFA-10" value="&lt;p style=&quot;margin: 0px; margin-top: 4px; text-align: center; text-decoration: underline;&quot;&gt;&lt;strong&gt;1.51&lt;/strong&gt;&lt;/p&gt;&lt;hr&gt;&lt;p style=&quot;margin: 0px; margin-left: 8px;&quot;&gt;Select from available parts&lt;/p&gt;" style="verticalAlign=middle;align=center;overflow=fill;fontSize=12;fontFamily=Helvetica;html=1;rounded=1;fontStyle=1;strokeWidth=3;fillColor=#E6FFCC" parent="1" vertex="1">
          <mxGeometry x="1030" y="517.5" width="170" height="65" as="geometry" />
        </mxCell>
        <mxCell id="x8zcqKaMzjIdZkj18LFA-15" value="Cost per work hour&lt;br&gt;Markup percentage" style="edgeStyle=orthogonalEdgeStyle;rounded=0;orthogonalLoop=1;jettySize=auto;html=1;exitX=1;exitY=0.5;exitDx=0;exitDy=0;entryX=0;entryY=0.75;entryDx=0;entryDy=0;" parent="1" source="x8zcqKaMzjIdZkj18LFA-14" target="x8zcqKaMzjIdZkj18LFA-10" edge="1">
          <mxGeometry relative="1" as="geometry">
            <mxPoint x="570" y="573.75" as="targetPoint" />
          </mxGeometry>
        </mxCell>
        <mxCell id="x8zcqKaMzjIdZkj18LFA-30" style="edgeStyle=orthogonalEdgeStyle;rounded=0;orthogonalLoop=1;jettySize=auto;html=1;exitX=0;exitY=0.5;exitDx=0;exitDy=0;entryX=1;entryY=0.75;entryDx=0;entryDy=0;" parent="1" source="x8zcqKaMzjIdZkj18LFA-14" target="x8zcqKaMzjIdZkj18LFA-21" edge="1">
          <mxGeometry relative="1" as="geometry">
            <Array as="points">
              <mxPoint x="650" y="613" />
              <mxPoint x="650" y="1043" />
            </Array>
          </mxGeometry>
        </mxCell>
        <mxCell id="x8zcqKaMzjIdZkj18LFA-31" value="Cost per work hour&lt;br&gt;Markup percentage" style="edgeLabel;html=1;align=center;verticalAlign=middle;resizable=0;points=[];" parent="x8zcqKaMzjIdZkj18LFA-30" vertex="1" connectable="0">
          <mxGeometry x="0.0372" y="2" relative="1" as="geometry">
            <mxPoint x="-32" y="140" as="offset" />
          </mxGeometry>
        </mxCell>
        <mxCell id="x8zcqKaMzjIdZkj18LFA-14" value="&lt;span style=&quot;white-space: pre;&quot;&gt;	&lt;/span&gt;Shop base settings" style="html=1;dashed=0;whitespace=wrap;shape=mxgraph.dfd.dataStoreID;align=left;spacingLeft=3;points=[[0,0],[0.5,0],[1,0],[0,0.5],[1,0.5],[0,1],[0.5,1],[1,1]];fillColor=#CDA2BE;" parent="1" vertex="1">
          <mxGeometry x="690.5" y="597.5" width="149" height="30" as="geometry" />
        </mxCell>
        <mxCell id="x8zcqKaMzjIdZkj18LFA-26" value="Quote" style="edgeStyle=orthogonalEdgeStyle;rounded=0;orthogonalLoop=1;jettySize=auto;html=1;exitX=0.5;exitY=1;exitDx=0;exitDy=0;entryX=1;entryY=0.25;entryDx=0;entryDy=0;" parent="1" source="x8zcqKaMzjIdZkj18LFA-21" target="rRo6whoKWek-YD1S4NNh-96" edge="1">
          <mxGeometry x="-0.9702" relative="1" as="geometry">
            <mxPoint x="744.9999999999995" y="920" as="targetPoint" />
            <Array as="points">
              <mxPoint x="385" y="1080" />
              <mxPoint x="1250" y="1080" />
              <mxPoint x="1250" y="55" />
            </Array>
            <mxPoint as="offset" />
          </mxGeometry>
        </mxCell>
        <mxCell id="x8zcqKaMzjIdZkj18LFA-21" value="&lt;p style=&quot;margin: 0px; margin-top: 4px; text-align: center; text-decoration: underline;&quot;&gt;&lt;strong&gt;1.4&lt;/strong&gt;&lt;/p&gt;&lt;hr&gt;&lt;p style=&quot;margin: 0px; margin-left: 8px;&quot;&gt;Select from available and&lt;br&gt;3rd party parts&lt;/p&gt;" style="verticalAlign=middle;align=center;overflow=fill;fontSize=12;fontFamily=Helvetica;html=1;rounded=1;fontStyle=1;strokeWidth=3;fillColor=#E6FFCC" parent="1" vertex="1">
          <mxGeometry x="300" y="990" width="170" height="70" as="geometry" />
        </mxCell>
        <mxCell id="x8zcqKaMzjIdZkj18LFA-23" value="Inventory and 3rd party parts" style="endArrow=classic;html=1;rounded=0;edgeStyle=orthogonalEdgeStyle;entryX=1;entryY=0.25;entryDx=0;entryDy=0;" parent="1" target="x8zcqKaMzjIdZkj18LFA-21" edge="1">
          <mxGeometry x="0.4205" y="-30" width="50" height="50" relative="1" as="geometry">
            <mxPoint x="690" y="520" as="sourcePoint" />
            <mxPoint x="620" y="690" as="targetPoint" />
            <mxPoint as="offset" />
          </mxGeometry>
        </mxCell>
      </root>
    </mxGraphModel>
  </diagram>
</mxfile>
